<svg xmlns="http://www.w3.org/2000/svg" viewBox="0 0 575.25 278.77"><defs><style>.cls-1{fill:#795b37;}.cls-2{fill:#fff;}.cls-3{fill:#c4e3cc;}.cls-4{fill:#e5f2e9;}.cls-5{fill:#f8fcfa;}</style></defs><g id="レイヤー_2" data-name="レイヤー 2"><g id="レイヤー_1-2" data-name="レイヤー 1"><path class="cls-1" d="M434.11,62.49l-.18,5.26h-2.12l-.67-4.44a13.25,13.25,0,0,1,1.35.77V63l-1.53-.8.18,1.12a12.31,12.31,0,0,0-5.76-1.4c-4.71,0-7,2.08-7,4.84s1.92,4,6.19,5.41l2.69.88c5.93,1.95,8.1,4.18,8.1,7.6,0,4-3.66,7.5-11.36,7.5a22.73,22.73,0,0,1-9.19-1.91l-.22-5.84h2.2l1,4.94a13.38,13.38,0,0,1-1.81-.92v1.34l2.05.76-.24-1.18a15.73,15.73,0,0,0,6.33,1.11c5.48,0,8.17-2.2,8.17-5.22,0-2.6-1.67-4-6.45-5.53l-3-1c-4.55-1.48-7.55-3.57-7.55-7.32,0-4,3.64-7.2,10.19-7.2A16.53,16.53,0,0,1,434.11,62.49Z"/><path class="cls-1" d="M432.49,63v1.09a13.25,13.25,0,0,0-1.35-.77L431,62.19Z"/><path class="cls-1" d="M417.8,85.33l.24,1.18L416,85.75V84.41A13.38,13.38,0,0,0,417.8,85.33Z"/><path class="cls-1" d="M399.3,60.78a6.65,6.65,0,0,1,1.24,3.86c0,4-2.87,7.67-7,10.12l-.81-1c3.12-2.18,4.82-4,5.63-7.25L399,67l-.42-1.35c-.06.31-.13.61-.21.89l-1.58-1.2c-1.5-1.06-1.91-1.92-1.91-2.95a2.12,2.12,0,0,1,2.36-2.16A3.49,3.49,0,0,1,399.3,60.78Z"/><path class="cls-1" d="M398.56,65.64,399,67l-.63-.46C398.43,66.25,398.5,66,398.56,65.64Z"/><path class="cls-1" d="M384.55,85.94v1.47h-4.81c0-.54-.06-1.22-.07-2Z"/><path class="cls-1" d="M379.74,87.41h-3.51c0-.54,0-1.22.08-2l1.28-.13h.84l1.24.13C379.68,86.19,379.71,86.87,379.74,87.41Z"/><path class="cls-1" d="M379.67,85.42l-1.24-.13h-.84l-1.28.13c.08-2.86.13-7,.13-9.79V70.21c0-5.52-2.17-7.45-5.93-7.45-2.81,0-6.45,1.05-10.86,5.06v-.77l0-.36.45-.16h-.45l0-.51c3.93-3.95,8.27-5.8,12.13-5.8,5,0,7.82,2.68,7.82,9.85v5.56C379.54,78.46,379.58,82.56,379.67,85.42Z"/><path class="cls-1" d="M371,85.94l5.32-.52c0,.77-.05,1.45-.08,2H371Z"/><path class="cls-1" d="M364.64,85.94v1.47h-4.81c0-.54,0-1.22-.07-2Z"/><polygon class="cls-1" points="360.07 66.53 359.62 66.69 359.62 66.53 360.07 66.53"/><path class="cls-1" d="M359.83,87.41h-3.49c0-.54,0-1.22.07-2l1.27-.13h.86l1.22.13C359.79,86.19,359.81,86.87,359.83,87.41Z"/><path class="cls-1" d="M359.76,85.42l-1.22-.13h-.86l-1.27.13c.09-2.89.12-7,.12-9.79V72.92c0-3.58-.06-6.48-.19-9.09l-5.56-.21V62.16l7.72-1.78.75.44.34,5.2c-.16.16-.34.32-.51.51h-1v1.72h1.11l.47-.43v7.81C359.65,78.37,359.67,82.53,359.76,85.42Z"/><path class="cls-1" d="M359.65,67.05v.77l-.47.43h-1.11V66.53h1c-.16.17-.34.35-.5.54l1-.38Z"/><path class="cls-1" d="M359.62,66.53v.16l-1,.38c.16-.19.34-.37.5-.54Z"/><path class="cls-1" d="M359.59,66l0,.51h-.54C359.25,66.34,359.43,66.18,359.59,66Z"/><path class="cls-1" d="M351.08,85.94l5.33-.52c0,.77,0,1.45-.07,2h-5.26Z"/><path class="cls-1" d="M337.89,82.08l1,.77a13.58,13.58,0,0,1-11.23,5.29c-7.6,0-14-4.62-14-13.91a13.62,13.62,0,0,1,13.88-14c7,0,11.55,4.46,11.55,10.49a10.79,10.79,0,0,1-.41,3.17l-21.62,0v-.28a10.54,10.54,0,0,1,.07-1.38l16.52,0c1.76,0,2.27-.86,2.27-2.46,0-4.06-3.19-7.85-8.49-7.85s-9.73,4-10.3,10.27h-1.83v1.66h1.76c.11,8.3,5.26,12,11.33,12A13,13,0,0,0,337.89,82.08Z"/><path class="cls-1" d="M315.29,72.18h1.83a10.54,10.54,0,0,0-.07,1.38v.28h-1.76Z"/><path class="cls-1" d="M300.84,86.28v1.13h-6.39l-.05-1.48Z"/><path class="cls-1" d="M300.84,60.22v1.14l-6.44.33c0-.49,0-1,.05-1.47Z"/><path class="cls-1" d="M294.45,60.22c0,.48,0,1-.05,1.47l-1.32.08h-.51V60.59l.23-.37Z"/><path class="cls-1" d="M294.4,85.93l.05,1.48h-3.72l0-1.48,1.26-.08h1Z"/><path class="cls-1" d="M293.08,61.77l1.32-.08c-.11,3.63-.11,7.31-.11,11V74.9c0,3.69,0,7.37.11,11l-1.32-.08h-1l-1.26.08c.1-3.63.07-7.3.11-10.78L291,63.08l1.59-2.49v1.18Z"/><polygon class="cls-1" points="292.8 60.22 292.57 60.59 292.57 60.22 292.8 60.22"/><polygon class="cls-1" points="292.57 60.22 292.57 60.59 290.98 63.08 290.99 60.22 292.57 60.22"/><polygon class="cls-1" points="290.99 60.22 290.98 63.08 275.44 87.41 273.72 87.41 257.64 63.06 257.54 60.22 259.3 60.22 275.08 84.37 274.48 85.3 275.69 85.3 275.08 84.37 290.45 60.22 290.99 60.22"/><path class="cls-1" d="M290.78,85.93l0,1.48h-6.19V86.28Z"/><polygon class="cls-1" points="275.08 84.37 275.69 85.3 274.48 85.3 275.08 84.37"/><polygon class="cls-1" points="263.91 86.28 263.91 87.41 257.96 87.41 257.96 85.9 263.91 86.28"/><polygon class="cls-1" points="257.96 85.9 257.96 87.41 255.74 87.41 255.74 85.9 256.32 85.85 257.35 85.85 257.96 85.9"/><polygon class="cls-1" points="257.96 72.21 257.96 85.9 257.35 85.85 256.32 85.85 255.74 85.9 255.74 61.69 256.77 61.75 257.64 63.06 257.96 72.21"/><polygon class="cls-1" points="257.54 60.22 257.64 63.06 256.77 61.75 257.08 61.77 257.54 61.77 257.54 60.22"/><polygon class="cls-1" points="257.54 60.22 257.54 61.77 257.08 61.77 256.77 61.75 255.76 60.22 257.54 60.22"/><polygon class="cls-1" points="255.76 60.22 256.77 61.75 255.74 61.69 255.74 60.22 255.76 60.22"/><polygon class="cls-1" points="255.74 85.9 255.74 87.41 249.97 87.41 249.97 86.28 255.74 85.9"/><polygon class="cls-1" points="255.74 60.22 255.74 61.69 249.59 61.36 249.59 60.22 255.74 60.22"/><path class="cls-1" d="M526.83,131.23V132h-2.7c0-.3,0-.68,0-1.12Z"/><path class="cls-1" d="M524.13,132h-2c0-.3,0-.68,0-1.12l.72-.07h.46l.7.07C524.11,131.36,524.12,131.74,524.13,132Z"/><path class="cls-1" d="M524.09,130.92l-.7-.07h-.46l-.72.07c0-1.6.06-3.9.06-5.49v-3c0-3.1-1.21-4.19-3.32-4.19-1.57,0-3.61.6-6.09,2.85v-.64l.25-.08h-.25l0-.28a9.78,9.78,0,0,1,6.8-3.26c2.8,0,4.39,1.5,4.39,5.52v3.11C524,127,524.05,129.32,524.09,130.92Z"/><path class="cls-1" d="M519.23,131.23l3-.31c0,.44,0,.82,0,1.12h-2.94Z"/><path class="cls-1" d="M515.66,131.23V132H513c0-.3,0-.68,0-1.12Z"/><polygon class="cls-1" points="513.1 120.34 512.85 120.42 512.85 120.34 513.1 120.34"/><path class="cls-1" d="M513,132h-2c0-.29,0-.68,0-1.12l.73-.07h.48l.68.07C512.94,131.36,513,131.74,513,132Z"/><path class="cls-1" d="M512.92,130.92l-.68-.07h-.48l-.73.07c.06-1.61.09-4,.09-5.49v-1.51c0-2-.05-3.64-.12-5.1l-3.12-.12v-.81l4.33-1,.43.25.19,2.93a1.79,1.79,0,0,0-.27.28H512v1h.63l.26-.24v4.37C512.86,127,512.88,129.31,512.92,130.92Z"/><path class="cls-1" d="M512.86,120.63v.43l-.26.24H512v-1h.59a2.69,2.69,0,0,0-.29.3l.58-.22Z"/><path class="cls-1" d="M512.85,120.34v.08l-.58.22a2.69,2.69,0,0,1,.29-.3Z"/><path class="cls-1" d="M512.83,120.06l0,.28h-.29A1.79,1.79,0,0,1,512.83,120.06Z"/><path class="cls-1" d="M508.06,131.23l3-.31c0,.44,0,.83,0,1.12h-2.94Z"/><path class="cls-1" d="M493.38,116.8a7.57,7.57,0,0,1,7.88,7.89c0,5.32-4,7.76-7.88,7.76s-7.87-2.44-7.87-7.76A7.54,7.54,0,0,1,493.38,116.8Zm5.9,7.89c0-4.35-2.31-7-5.9-7s-5.9,2.6-5.9,7,2.27,6.82,5.9,6.82S499.28,129,499.28,124.69Z"/><path class="cls-1" d="M479.06,131.23V132H475.9c0-.33,0-.71,0-1.12Z"/><path class="cls-1" d="M475.9,108.86l-.1,4.47v12.1c0,1.66,0,3.82.06,5.49l-.73-.07h-.48l-.67.06c0-1.68.07-3.83.07-5.48V110.36l-3.12-.13v-.82l4.46-.8Z"/><path class="cls-1" d="M475.9,132h-2c0-.33,0-.71.05-1.13l.67-.06h.48l.73.07C475.87,131.33,475.89,131.71,475.9,132Z"/><path class="cls-1" d="M470.7,131.23l3.28-.32c0,.42,0,.8-.05,1.13H470.7Z"/><path class="cls-1" d="M465,130.72l.5.54a3.22,3.22,0,0,1-2.51,1.15c-1.66,0-2.55-1-2.73-2.86l.14-.14.61-.57-.2-.73-.53.41s0,0-.08.07v-5c.3-.08.59-.13.87-.19v-.79c-.29.06-.58.1-.87.18v-.94c0-3.32-1.27-4.15-3.92-4.15a7.53,7.53,0,0,0-3,.6l.12-.35-1.14.87c.35-.2.69-.37,1-.52l-.64,2a1.22,1.22,0,0,1-1.25,1,1,1,0,0,1-1.11-.86c.72-2.36,3.09-3.68,6.31-3.68,3.54,0,5.31,1.39,5.31,4.9v7c0,2,.59,2.67,1.59,2.67A2.29,2.29,0,0,0,465,130.72Z"/><path class="cls-1" d="M461.06,122.65v.79c-.28.06-.57.11-.87.19v-.8C460.48,122.75,460.77,122.71,461.06,122.65Z"/><path class="cls-1" d="M460.8,128.11l.2.73-.61.57-.14.14a2.33,2.33,0,0,1-.06-.53v-.43s.06,0,.08-.07Z"/><path class="cls-1" d="M460.19,129a2.33,2.33,0,0,0,.06.53c-2.1,2-3.57,2.9-5.84,2.9-2.57,0-4.55-1.32-4.55-3.78,0-2.06,1.52-3.5,5.52-4.72,1.52-.44,3.22-.82,4.81-1.12v.8c-1.53.33-3.22.77-4.49,1.19-3,1-4,2.21-4,3.55,0,1.83,1.34,2.76,3.3,2.76,1.68,0,3-.73,5.16-2.54Z"/><path class="cls-1" d="M453.43,118l-.12.35c-.33.15-.67.32-1,.52Z"/><path class="cls-1" d="M442,118.06l-.1,3h-1.18l-.38-2.49a7.31,7.31,0,0,1,.75.44v-.63l-.85-.44.1.63a6.85,6.85,0,0,0-3.24-.79c-2.63,0-3.93,1.17-3.93,2.71s1.09,2.26,3.48,3l1.52.49c3.32,1.09,4.54,2.35,4.54,4.25,0,2.25-2,4.21-6.38,4.21a13,13,0,0,1-5.15-1.06l-.12-3.28h1.22l.57,2.76c-.35-.15-.67-.33-1-.51v.75l1.15.42-.15-.66a8.86,8.86,0,0,0,3.56.64c3.07,0,4.58-1.24,4.58-2.93,0-1.47-.94-2.26-3.62-3.1l-1.66-.54c-2.55-.83-4.24-2-4.24-4.11,0-2.26,2-4,5.72-4A9.39,9.39,0,0,1,442,118.06Z"/><path class="cls-1" d="M441.09,118.34V119a7.31,7.31,0,0,0-.75-.44l-.1-.63Z"/><path class="cls-1" d="M432.85,130.87l.15.66-1.15-.42v-.75C432.18,130.54,432.5,130.72,432.85,130.87Z"/><path class="cls-1" d="M412.36,131.23V132h-3.14c0-.33,0-.71-.05-1.12Z"/><path class="cls-1" d="M409.22,132h-2c0-.33,0-.71,0-1.13l.67-.06h.47l.74.07C409.19,131.33,409.2,131.71,409.22,132Z"/><path class="cls-1" d="M409.2,108.86l-.1,4.47v12.1c0,1.66,0,3.82.07,5.49l-.74-.07H408l-.67.06c0-1.68.06-3.83.06-5.48V110.36l-3.12-.13v-.82l4.48-.8Z"/><path class="cls-1" d="M404,131.23l3.29-.32c0,.42,0,.8,0,1.13H404Z"/><path class="cls-1" d="M398.29,130.72l.51.54a3.22,3.22,0,0,1-2.52,1.15c-1.64,0-2.55-1-2.73-2.86l.16-.14.59-.57-.2-.73-.51.41-.1.09v-5c.3-.08.59-.13.87-.19v-.79c-.29.06-.58.1-.87.18v-.94c0-3.32-1.27-4.15-3.91-4.15a7.41,7.41,0,0,0-2.95.6l.1-.35-1.12.87c.33-.2.67-.36,1-.52l-.64,2a1.2,1.2,0,0,1-1.24,1,1,1,0,0,1-1.12-.86c.72-2.36,3.1-3.68,6.32-3.68,3.53,0,5.3,1.39,5.3,4.9v7c0,2,.59,2.67,1.59,2.67A2.29,2.29,0,0,0,398.29,130.72Z"/><path class="cls-1" d="M394.36,122.65v.79c-.28.06-.57.11-.87.19v-.8C393.78,122.75,394.07,122.71,394.36,122.65Z"/><path class="cls-1" d="M394.1,128.11l.2.73-.59.57-.16.14a2.33,2.33,0,0,1-.06-.53v-.41l.1-.09Z"/><path class="cls-1" d="M393.49,129a2.33,2.33,0,0,0,.06.53c-2.1,2-3.57,2.9-5.84,2.9-2.55,0-4.53-1.32-4.53-3.78,0-2.06,1.5-3.5,5.5-4.72,1.5-.44,3.23-.82,4.81-1.12v.8a44.81,44.81,0,0,0-4.47,1.19c-3,1-4,2.21-4,3.55,0,1.83,1.33,2.76,3.29,2.76,1.69,0,3-.72,5.16-2.52Z"/><path class="cls-1" d="M386.73,118l-.1.35h0c-.33.16-.67.32-1,.52Z"/><path class="cls-1" d="M376.19,131.23V132h-2.71c0-.29,0-.68,0-1.12Z"/><path class="cls-1" d="M373.48,132h-1.93c0-.3,0-.68.05-1.12l.67-.07h.48l.7.07C373.45,131.36,373.46,131.75,373.48,132Z"/><path class="cls-1" d="M373.46,117.13l-.09,3.89v4.41c0,1.53,0,3.88.08,5.49l-.7-.07h-.48l-.67.07c0-1.61.06-4,.06-5.49v-1.51c0-1.87,0-3.44-.09-5.1l-3.16-.12v-.81l4.63-1Z"/><path class="cls-1" d="M372.36,109.52a1.42,1.42,0,1,1-1.64,1.41A1.49,1.49,0,0,1,372.36,109.52Z"/><path class="cls-1" d="M368.58,131.23l3-.31c0,.44,0,.82-.05,1.12h-3Z"/><path class="cls-1" d="M361.46,128.93l.58.33a6.89,6.89,0,0,1-6.26,3.19c-4.7,0-7.86-3.11-7.86-7.82,0-4.94,3.92-7.83,8.11-7.83,2.77,0,5.13,1.35,5.94,3.61a1,1,0,0,1-1.11.84,1.27,1.27,0,0,1-1.32-.93l-.77-2a9.77,9.77,0,0,1,1.15.6l-1.34-1.09.19.49a6.6,6.6,0,0,0-2.73-.57c-3.56,0-6.24,2.61-6.24,6.76s2.65,6.66,6.33,6.66A7.17,7.17,0,0,0,361.46,128.93Z"/><path class="cls-1" d="M358.58,117.82l1.34,1.09a9.77,9.77,0,0,0-1.15-.6Z"/><path class="cls-1" d="M341.66,130.72l.51.54a3.25,3.25,0,0,1-2.52,1.15c-1.65,0-2.55-1-2.74-2.86a1.85,1.85,0,0,1,.14-.14l.62-.57-.21-.73-.52.41-.09.07v-5c.31-.08.6-.13.87-.19v-.79c-.29.06-.58.1-.87.18v-.94c0-3.32-1.27-4.15-3.9-4.15a7.54,7.54,0,0,0-3,.6l.11-.35-1.13.87a10.93,10.93,0,0,1,1-.52l-.64,2a1.21,1.21,0,0,1-1.26,1,1,1,0,0,1-1.1-.86c.71-2.36,3.08-3.68,6.3-3.68,3.54,0,5.32,1.39,5.32,4.9v7c0,2,.58,2.67,1.59,2.67A2.31,2.31,0,0,0,341.66,130.72Z"/><path class="cls-1" d="M337.72,122.65v.79c-.27.06-.56.11-.87.19v-.8C337.14,122.75,337.43,122.71,337.72,122.65Z"/><path class="cls-1" d="M337.46,128.11l.21.73-.62.57a1.85,1.85,0,0,0-.14.14,2.33,2.33,0,0,1-.06-.53v-.43l.09-.07Z"/><path class="cls-1" d="M336.85,129a2.33,2.33,0,0,0,.06.53c-2.1,2-3.57,2.9-5.84,2.9-2.55,0-4.53-1.32-4.53-3.78,0-2.06,1.5-3.5,5.5-4.72,1.5-.44,3.24-.82,4.81-1.12v.8a44.81,44.81,0,0,0-4.47,1.19c-3,1-4,2.21-4,3.55,0,1.83,1.33,2.76,3.29,2.76,1.68,0,3-.73,5.16-2.54Z"/><path class="cls-1" d="M330.09,118l-.11.35a10.93,10.93,0,0,0-1,.52Z"/><path class="cls-1" d="M323,109.62c0,.52-.54.93-1.39.93a4.21,4.21,0,0,1-2.27-.92l-.68-.45a2.91,2.91,0,0,1,1-.17,4.09,4.09,0,0,1,1.4.24l-.69-.68-2,.38.34.23a4.63,4.63,0,0,0-2.17,1.49c-1,1.19-1.63,2.89-1.62,6.53H314v1.13h.87v7.1c0,1.82.05,3.66.11,5.49l-.76-.07h-.48l-.7.07c.06-1.83.09-3.67.09-5.49v-7.1h-3.34v-.94l3.34-.24c0,.08,0,.17,0,.26l.7-.31-.68.05c.16-3.38.83-5.57,2.46-7.08a6.33,6.33,0,0,1,4.44-1.78C321.46,108.29,322.68,108.79,323,109.62Z"/><path class="cls-1" d="M320.32,108.57l.69.68a4.09,4.09,0,0,0-1.4-.24,2.91,2.91,0,0,0-1,.17l-.34-.23Z"/><path class="cls-1" d="M320.31,117.2v1.13h-5.47V118c0-.26,0-.51,0-.76Z"/><path class="cls-1" d="M318.47,131.23V132H315c0-.37,0-.74,0-1.12Z"/><path class="cls-1" d="M315,130.92c0,.38,0,.75,0,1.12h-2c0-.37,0-.74,0-1.12l.7-.07h.48Z"/><path class="cls-1" d="M314.84,118v.37H314V117.2h.86C314.83,117.45,314.83,117.7,314.84,118Z"/><path class="cls-1" d="M313.78,117.1l-.7.31c0-.09,0-.18,0-.26Z"/><path class="cls-1" d="M313,130.92c0,.38,0,.75,0,1.12h-3.23v-.81Z"/><path class="cls-1" d="M573.55,206.64c.3.18,1.7,1.22,1.7,2.36s-1,1.31-2,1.31c-1.52,0-8.68-.29-10.29-.29-7.37,0-18.69,1.34-23.79,1.9L544,249c.09.56.39,2.36-.48,2.36-2,0-5.94-2.07-6.23-3.5,0-.56.11-2.92.11-3.49,0-1-.11-2.15-.2-3.19l-3.31-28.55c-6.33.66-22.56,3.4-27,5-.56.2-2.63,2-3.28,2-.87,0-3.36-1.47-7.51-8.54,0,0-1.61-2.61,0-3.9.84-.68,18.87-4.22,36.28-7.94l-1-9.34a203.71,203.71,0,0,1-21.14,2.06c-2.44,0-7.84,0-11.7-7.46l1.23-.84c3.4,2.63,5.37,3.4,10.09,3.4,6.8,0,15.19-1,20.95-1.7-.27-2.26-.57-4-.93-6.41l-.77-4.83c-.57-3.68-1.32-6-7.55-7.55l.29-1.32a22.81,22.81,0,0,1,2.63-.18c4.83,0,12.86,2.93,12.86,4.63,0,.65-.77,1.31-1.13,1.7-1.05,1-1.05,1.4-1.05,2.26a77.05,77.05,0,0,0,1.05,11,140.28,140.28,0,0,0,19.25-3.5c.65-.2,3.49-2,4.24-2,2.85.2,10.83,9.14,9.74,11.7-.74,1.79-16.48,5.92-31.53,9.57l.83,7.52c6.33-.77,8.3-1,14-1.52l5.67-.56c2-.18,5.28-.57,5.94-.75a14.08,14.08,0,0,0,3.4-2.45Zm-8.43-16.17c1.49-1.36-.93-5.53-3.56-5.26l-1.66.27c-3.58.57-19.38,3.13-23.26,3.79l1,8.78C551.92,194.94,564,191.52,565.12,190.47Zm-31.68,18.05-.77-6.94c-9.36,2.25-17.71,4.22-21,5-13.88,3.29-11.38,6.4-5.92,5.69,2.36-.29,6.89-.74,9.43-1.22C519.84,210.31,526.07,209.45,533.44,208.52Z"/><path class="cls-1" d="M424.79,174.92c1.61,1.31,1.7,1.79,1.7,2.36,0,.84-.84,1-1.52,1.13l-3,.48c-8.94,9.38-18.35,18.59-29.41,25.44l0,0s-.25.16-.66.38l-.15.12c-1.41,14.42-3.59,23.94-14,32.38-13.4,10.88-23.38,14.23-27,15.1l-.39-1.52C361,247,379,231,382.23,222.1a63.12,63.12,0,0,0,3.25-14.64c-3,.54-11.93,2.1-13.31-8.37s6.25-8.78,9.29-8.23a46.85,46.85,0,0,1,9,2.18,3.82,3.82,0,0,1,2.27,4.14c-.21.66-.66,4.27-.75,5.11,9.52-7,19.43-19.55,23-26.8a192,192,0,0,0-20.2,1.31l-8.86,1c-2.84.39-8.69,1-11.14,1.52l-5.94,1.14c-2.26.45-3.31.65-4.35,1.79-1.61,1.49-1.79,1.7-2.27,1.7-1.79,0-6-5.58-9.14-12.56l1.41-.75c3.49,4.15,5.1,4.9,9.43,4.9a24.33,24.33,0,0,0,2.56-.09l13.2-1.05,13.6-1.13c8.78-.75,17.37-1,22.45-1.23l2.18-3ZM385.68,205c.16-2,.23-4.06.23-5.92,0-4.26-1.23-5.31-5-6.62-1.88-.59-4.83,1.27-5.06,6.48s4.06,6.26,4.06,6.26A12,12,0,0,0,385.68,205Z"/><path class="cls-2" d="M155.52,152.27v20a36.92,36.92,0,0,0-6.36-.68V150.89A31,31,0,0,1,155.52,152.27Z"/><path class="cls-2" d="M155.52,173.31V192a41,41,0,0,0-6.36-.17v-19.2A35.89,35.89,0,0,1,155.52,173.31Z"/><path class="cls-2" d="M155.52,193v79.78H6V241.9a71.68,71.68,0,0,1,6.36-3.58v27.85h136.8V192.81A41,41,0,0,1,155.52,193Z"/><path class="cls-2" d="M12.36,216.6v20.6c-2.18,1.09-4.31,2.25-6.36,3.52V219.85C8.07,218.69,10.2,217.62,12.36,216.6Z"/><path class="cls-2" d="M12.36,193.06v22.43c-2.15,1-4.28,2.07-6.36,3.22V196.08C8.09,195,10.23,194,12.36,193.06Z"/><path class="cls-2" d="M155.52,6V151.22a32.44,32.44,0,0,0-6.36-1.34V12.6H12.36V192c-2.12,1-4.26,2-6.36,3V6Z"/><path class="cls-3" d="M148.16,192.86v72.31H13.36V237.82c2.36-1.18,4.77-2.27,7.15-3.35,7.33-3.33,14.91-6.78,20.93-12.17A38.37,38.37,0,0,0,47.1,215c2.36-3.58,4.81-7.3,7.95-9,6.54-3.58,14.13-1.82,22.16,0,4.81,1.12,9.82,2.28,14.51,2.17,10.22-.22,19.92-4.09,29.29-7.83,3.39-1.35,6.88-2.75,10.35-3.95A65.92,65.92,0,0,1,148.16,192.86Z"/><path class="cls-4" d="M148.16,172.59v19.27A66.78,66.78,0,0,0,131,195.49c-3.48,1.21-7,2.61-10.39,4-9.29,3.71-18.9,7.54-28.94,7.76-4.62.11-9.51-1-14.26-2.14-7.87-1.83-16-3.72-22.87,0-3.36,1.84-5.87,5.65-8.31,9.34a36.52,36.52,0,0,1-5.49,7.11c-5.9,5.29-13.41,8.7-20.67,12-2.25,1-4.51,2.05-6.74,3.14V216.13c1.33-.62,2.67-1.23,4-1.83,7.33-3.34,14.91-6.78,20.93-12.17a38.37,38.37,0,0,0,5.66-7.3c2.37-3.59,4.81-7.3,7.95-9,6.54-3.58,14.13-1.81,22.16.06,4.81,1.12,9.8,2.27,14.52,2.17,10.21-.23,19.91-4.1,29.29-7.84,3.38-1.35,6.88-2.74,10.34-3.94A62.4,62.4,0,0,1,148.16,172.59Z"/><path class="cls-5" d="M148.16,150.79v20.8a63.28,63.28,0,0,0-20.28,3.72c-3.48,1.21-7,2.61-10.38,4-9.3,3.71-18.91,7.55-28.95,7.77-4.61.11-9.51-1-14.26-2.15-7.87-1.83-16-3.72-22.87,0-3.36,1.84-5.87,5.66-8.31,9.35a36.44,36.44,0,0,1-5.49,7.1c-5.9,5.29-13.41,8.7-20.67,12L13.36,215V192.61l.58-.27c7.33-3.33,14.91-6.77,20.93-12.17a37.55,37.55,0,0,0,5.65-7.29c2.37-3.59,4.82-7.3,8-9,6.53-3.58,14.12-1.81,22.15,0,4.82,1.12,9.82,2.28,14.52,2.18,10.22-.23,19.91-4.1,29.29-7.84,3.38-1.35,6.88-2.74,10.34-3.94C130.58,152.3,139.44,150,148.16,150.79Z"/><path class="cls-2" d="M148.16,13.6V149.79c-8.87-.77-17.83,1.54-23.7,3.57-3.49,1.21-7,2.61-10.39,4-9.29,3.71-18.91,7.54-28.94,7.77-4.61.1-9.52-1.05-14.27-2.15-7.86-1.83-16-3.72-22.86,0-3.36,1.84-5.88,5.66-8.31,9.35a37.14,37.14,0,0,1-5.49,7.1c-5.9,5.29-13.41,8.7-20.68,12l-.16.07V13.6Z"/><path class="cls-1" d="M161.52,272.77v6H0V0H161.52V272.77Zm-6,0V193a41,41,0,0,0-6.36-.18v73.36H12.36V238.32A71.68,71.68,0,0,0,6,241.9v30.87Zm0-80.79V173.31a35.89,35.89,0,0,0-6.36-.7v19.2A41,41,0,0,1,155.52,192Zm0-19.69v-20a31,31,0,0,0-6.36-1.38v20.72A36.92,36.92,0,0,1,155.52,172.29Zm0-21.07V6H6V195c2.1-1,4.24-2,6.36-3V12.6h136.8V149.88A32.44,32.44,0,0,1,155.52,151.22Zm-7.36,114V192.86a65.92,65.92,0,0,0-16.8,3.57c-3.47,1.2-7,2.6-10.35,3.95-9.37,3.74-19.07,7.61-29.29,7.83-4.69.11-9.7-1.05-14.51-2.17-8-1.87-15.62-3.63-22.16,0-3.14,1.71-5.59,5.43-7.95,9a38.37,38.37,0,0,1-5.66,7.3c-6,5.39-13.6,8.84-20.93,12.17-2.38,1.08-4.79,2.17-7.15,3.35v27.35Zm0-73.31V172.59a62.4,62.4,0,0,0-19.95,3.67c-3.46,1.2-7,2.59-10.34,3.94-9.38,3.74-19.08,7.61-29.29,7.84-4.72.1-9.71-1-14.52-2.17-8-1.87-15.62-3.64-22.16-.06-3.14,1.72-5.58,5.43-7.95,9a38.37,38.37,0,0,1-5.66,7.3c-6,5.39-13.6,8.83-20.93,12.17-1.33.6-2.67,1.21-4,1.83V236.7c2.23-1.09,4.49-2.12,6.74-3.14,7.26-3.3,14.77-6.71,20.67-12a36.52,36.52,0,0,0,5.49-7.11c2.44-3.69,5-7.5,8.31-9.34,6.87-3.76,15-1.87,22.87,0,4.75,1.1,9.64,2.25,14.26,2.14,10-.22,19.65-4.05,28.94-7.76,3.4-1.35,6.91-2.75,10.39-4A66.78,66.78,0,0,1,148.16,191.86Zm0-20.27v-20.8c-8.72-.78-17.58,1.51-23.38,3.52-3.46,1.2-7,2.59-10.34,3.94-9.38,3.74-19.07,7.61-29.29,7.84-4.7.1-9.7-1.06-14.52-2.18-8-1.86-15.62-3.63-22.15,0-3.14,1.72-5.59,5.43-8,9a37.55,37.55,0,0,1-5.65,7.29c-6,5.4-13.6,8.84-20.93,12.17l-.58.27V215L17,213.38c7.26-3.3,14.77-6.71,20.67-12a36.44,36.44,0,0,0,5.49-7.1c2.44-3.69,5-7.51,8.31-9.35,6.88-3.76,15-1.87,22.87,0C79,186,83.94,187.15,88.55,187c10-.22,19.65-4.06,29-7.77,3.39-1.35,6.9-2.75,10.38-4A63.28,63.28,0,0,1,148.16,171.59Zm0-21.8V13.6H13.36V191.5l.16-.07c7.27-3.3,14.78-6.71,20.68-12a37.14,37.14,0,0,0,5.49-7.1c2.43-3.69,5-7.51,8.31-9.35,6.87-3.76,15-1.87,22.86,0,4.75,1.1,9.66,2.25,14.27,2.15,10-.23,19.65-4.06,28.94-7.77,3.39-1.35,6.9-2.75,10.39-4C130.33,151.33,139.29,149,148.16,149.79ZM12.36,237.2V216.6c-2.16,1-4.29,2.09-6.36,3.25v20.87C8.05,239.45,10.18,238.29,12.36,237.2Zm0-21.71V193.06c-2.13,1-4.27,2-6.36,3v22.63C8.08,217.56,10.21,216.51,12.36,215.49Z"/><path class="cls-1" d="M95.74,66.81V66.1H64.5v1H79.61V81.2H64.5v1H79.61v12.4H64.5v1H79.61v24h1v-24H95.74v-1H80.63V82.22H95.74v-1H81.36L95.43,67.12ZM80.63,80.47V67.12H94Z"/></g></g></svg>